<svg width="800" height="100" viewBox="0 0 800 100" fill="none" xmlns="http://www.w3.org/2000/svg">
  <!-- Mario-style ground/dirt platform -->
  <!-- Base ground -->
  <rect width="800" height="100" fill="#8b4513"/>
  
  <!-- Grass top -->
  <rect x="0" y="0" width="800" height="20" fill="#27ae60"/>
  <rect x="0" y="0" width="800" height="15" fill="#2ecc71"/>
  
  <!-- Grass blades -->
  <g fill="#27ae60">
    <polygon points="10,15 12,5 14,15" />
    <polygon points="25,15 27,3 29,15" />
    <polygon points="45,15 47,7 49,15" />
    <polygon points="65,15 67,4 69,15" />
    <polygon points="85,15 87,6 89,15" />
    <polygon points="110,15 112,5 114,15" />
    <polygon points="135,15 137,8 139,15" />
    <polygon points="160,15 162,4 164,15" />
    <polygon points="185,15 187,7 189,15" />
    <polygon points="210,15 212,5 214,15" />
    <polygon points="235,15 237,6 239,15" />
    <polygon points="260,15 262,4 264,15" />
    <polygon points="285,15 287,8 289,15" />
    <polygon points="310,15 312,5 314,15" />
    <polygon points="335,15 337,7 339,15" />
    <polygon points="360,15 362,4 364,15" />
    <polygon points="385,15 387,6 389,15" />
    <polygon points="410,15 412,5 414,15" />
    <polygon points="435,15 437,8 439,15" />
    <polygon points="460,15 462,4 464,15" />
    <polygon points="485,15 487,7 489,15" />
    <polygon points="510,15 512,5 514,15" />
    <polygon points="535,15 537,6 539,15" />
    <polygon points="560,15 562,4 564,15" />
    <polygon points="585,15 587,8 589,15" />
    <polygon points="610,15 612,5 614,15" />
    <polygon points="635,15 637,7 639,15" />
    <polygon points="660,15 662,4 664,15" />
    <polygon points="685,15 687,6 689,15" />
    <polygon points="710,15 712,5 714,15" />
    <polygon points="735,15 737,8 739,15" />
    <polygon points="760,15 762,4 764,15" />
    <polygon points="785,15 787,7 789,15" />
  </g>
  
  <!-- Dirt layers -->
  <rect x="0" y="20" width="800" height="15" fill="#a0522d"/>
  <rect x="0" y="35" width="800" height="15" fill="#8b4513"/>
  <rect x="0" y="50" width="800" height="15" fill="#654321"/>
  <rect x="0" y="65" width="800" height="35" fill="#4a2c17"/>
  
  <!-- Dirt texture -->
  <g fill="#654321" opacity="0.5">
    <circle cx="50" cy="30" r="3"/>
    <circle cx="150" cy="45" r="2"/>
    <circle cx="250" cy="25" r="4"/>
    <circle cx="350" cy="40" r="2"/>
    <circle cx="450" cy="30" r="3"/>
    <circle cx="550" cy="45" r="2"/>
    <circle cx="650" cy="25" r="4"/>
    <circle cx="750" cy="35" r="3"/>
  </g>
  
  <!-- Rock texture -->
  <g fill="#696969" opacity="0.7">
    <circle cx="100" cy="60" r="2"/>
    <circle cx="200" cy="75" r="3"/>
    <circle cx="300" cy="55" r="2"/>
    <circle cx="400" cy="70" r="3"/>
    <circle cx="500" cy="60" r="2"/>
    <circle cx="600" cy="75" r="3"/>
    <circle cx="700" cy="55" r="2"/>
  </g>
</svg>