<svg width="200" height="32" viewBox="0 0 200 32" fill="none" xmlns="http://www.w3.org/2000/svg">
  <!-- Mario-style platform -->
  <!-- Base platform -->
  <rect width="200" height="32" rx="4" fill="#8e44ad"/>
  <rect x="2" y="2" width="196" height="28" rx="3" fill="#9b59b6"/>
  
  <!-- Platform top surface -->
  <rect x="0" y="0" width="200" height="8" rx="4" fill="#a569bd"/>
  <rect x="2" y="2" width="196" height="4" rx="2" fill="#bb8fce"/>
  
  <!-- Brick pattern -->
  <g fill="#8e44ad" opacity="0.6">
    <rect x="10" y="8" width="30" height="12"/>
    <rect x="50" y="8" width="30" height="12"/>
    <rect x="90" y="8" width="30" height="12"/>
    <rect x="130" y="8" width="30" height="12"/>
    <rect x="170" y="8" width="25" height="12"/>
    
    <!-- Offset second row -->
    <rect x="25" y="20" width="30" height="10"/>
    <rect x="65" y="20" width="30" height="10"/>
    <rect x="105" y="20" width="30" height="10"/>
    <rect x="145" y="20" width="30" height="10"/>
  </g>
  
  <!-- Brick outlines -->
  <g stroke="#7d3c98" stroke-width="1" fill="none">
    <rect x="10" y="8" width="30" height="12"/>
    <rect x="50" y="8" width="30" height="12"/>
    <rect x="90" y="8" width="30" height="12"/>
    <rect x="130" y="8" width="30" height="12"/>
    <rect x="170" y="8" width="25" height="12"/>
    
    <rect x="25" y="20" width="30" height="10"/>
    <rect x="65" y="20" width="30" height="10"/>
    <rect x="105" y="20" width="30" height="10"/>
    <rect x="145" y="20" width="30" height="10"/>
  </g>
  
  <!-- Decorative elements -->
  <g fill="#bb8fce">
    <circle cx="20" cy="14" r="2"/>
    <circle cx="60" cy="14" r="2"/>
    <circle cx="100" cy="14" r="2"/>
    <circle cx="140" cy="14" r="2"/>
    <circle cx="180" cy="14" r="2"/>
  </g>
  
  <!-- Edge highlights -->
  <rect x="0" y="0" width="200" height="2" fill="#d2b4de"/>
  <rect x="0" y="30" width="200" height="2" fill="#6c3483"/>
</svg>