<svg width="32" height="48" viewBox="0 0 32 48" fill="none" xmlns="http://www.w3.org/2000/svg">
  <!-- Mario-style player character -->
  <!-- Hat -->
  <ellipse cx="16" cy="8" rx="12" ry="6" fill="#e74c3c"/>
  <ellipse cx="16" cy="7" rx="10" ry="5" fill="#c0392b"/>
  
  <!-- Head -->
  <circle cx="16" cy="16" r="8" fill="#f4d1a6"/>
  <circle cx="16" cy="15" rx="7" ry="6" fill="#f7dc6f"/>
  
  <!-- Eyes -->
  <circle cx="13" cy="14" r="1.5" fill="black"/>
  <circle cx="19" cy="14" r="1.5" fill="black"/>
  <circle cx="13.5" cy="13.5" r="0.5" fill="white"/>
  <circle cx="19.5" cy="13.5" r="0.5" fill="white"/>
  
  <!-- Nose -->
  <ellipse cx="16" cy="17" rx="1" ry="1.5" fill="#e67e22"/>
  
  <!-- Mustache -->
  <ellipse cx="16" cy="19" rx="3" ry="1" fill="#8b4513"/>
  
  <!-- Body -->
  <rect x="12" y="22" width="8" height="12" rx="2" fill="#3498db"/>
  <rect x="13" y="23" width="6" height="10" rx="1" fill="#2980b9"/>
  
  <!-- Overalls -->
  <rect x="14" y="24" width="4" height="8" fill="#e74c3c"/>
  <circle cx="15" cy="26" r="1" fill="#f1c40f"/>
  <circle cx="17" cy="26" r="1" fill="#f1c40f"/>
  
  <!-- Arms -->
  <circle cx="9" cy="26" r="3" fill="#f4d1a6"/>
  <circle cx="23" cy="26" r="3" fill="#f4d1a6"/>
  
  <!-- Gloves -->
  <circle cx="9" cy="28" r="2" fill="white"/>
  <circle cx="23" cy="28" r="2" fill="white"/>
  
  <!-- Legs -->
  <rect x="13" y="34" width="3" height="8" fill="#2980b9"/>
  <rect x="16" y="34" width="3" height="8" fill="#2980b9"/>
  
  <!-- Shoes -->
  <ellipse cx="14" cy="44" rx="3" ry="2" fill="#8b4513"/>
  <ellipse cx="18" cy="44" rx="3" ry="2" fill="#8b4513"/>
</svg>